<?xml version="1.0" encoding="utf-8"?>
<!-- Generator: Adobe Illustrator 25.3.1, SVG Export Plug-In . SVG Version: 6.00 Build 0)  -->
<svg version="1.1"
	 id="svg2" xmlns:cc="http://creativecommons.org/ns#" xmlns:dc="http://purl.org/dc/elements/1.1/" xmlns:inkscape="http://www.inkscape.org/namespaces/inkscape" xmlns:rdf="http://www.w3.org/1999/02/22-rdf-syntax-ns#" xmlns:sodipodi="http://sodipodi.sourceforge.net/DTD/sodipodi-0.dtd" xmlns:svg="http://www.w3.org/2000/svg"
	 xmlns="http://www.w3.org/2000/svg" xmlns:xlink="http://www.w3.org/1999/xlink" x="0px" y="0px" viewBox="0 0 500 333.3"
	 style="enable-background:new 0 0 500 333.3;" xml:space="preserve">
<style type="text/css">
	.st0{fill:#009966;}
	.st1{fill:#000099;}
	.st2{fill:#FFFFFF;}
</style>
<sodipodi:namedview  bordercolor="#666666" borderopacity="1" gridtolerance="10" guidetolerance="10" id="namedview12" inkscape:current-layer="layer1" inkscape:cx="413.62236" inkscape:cy="227.0723" inkscape:pageopacity="0" inkscape:pageshadow="2" inkscape:window-height="986" inkscape:window-maximized="1" inkscape:window-width="1920" inkscape:window-x="-11" inkscape:window-y="-11" inkscape:zoom="1.18" objecttolerance="10" pagecolor="#ffffff" showgrid="false">
	</sodipodi:namedview>
<g id="layer1">
	<rect id="rect2160" y="275" class="st0" width="500" height="58.3"/>
	<rect id="rect3198" y="0" class="st0" width="500" height="58.3"/>
	<rect id="rect3200" y="58.3" width="500" height="16.7"/>
	<rect id="rect4171" y="258.3" width="500" height="16.7"/>
	<rect id="rect4173" y="75" class="st1" width="500" height="183.3"/>
	<path id="path5162" class="st2" d="M241.7,79.2c-83.3,25-79.2,87.5-52.5,145l-31.7,30l57.5-20.8v-76.7c18.3-27.5,51.7-27.5,70,0
		v76.7l57.5,20.8l-31.7-30c26.7-57.5,30.8-120-52.5-145L250,115L241.7,79.2z"/>
	<path id="path6829" class="st2" d="M281.7,164.2l-19.4,15l7.4,24.2L250,188.5l-19.6,14.8l7.3-24.1l-19.5-15l24.1-0.1L250,140
		l7.6,24.1L281.7,164.2z"/>
</g>
</svg>
