<?xml version="1.0" encoding="utf-8"?>
<!-- Generator: Adobe Illustrator 25.3.1, SVG Export Plug-In . SVG Version: 6.00 Build 0)  -->
<svg version="1.1"
	 id="svg2" xmlns:cc="http://creativecommons.org/ns#" xmlns:dc="http://purl.org/dc/elements/1.1/" xmlns:rdf="http://www.w3.org/1999/02/22-rdf-syntax-ns#" xmlns:svg="http://www.w3.org/2000/svg"
	 xmlns="http://www.w3.org/2000/svg" xmlns:xlink="http://www.w3.org/1999/xlink" x="0px" y="0px" viewBox="0 0 334.5 111.4"
	 style="enable-background:new 0 0 334.5 111.4;" xml:space="preserve">
<g id="g10" transform="matrix(1.3333333,0,0,-1.3333333,0,111.37333)">
	<g id="g12" transform="scale(0.1)">
		<path id="path14" d="M2508.5,98.9v412.5L2053,462.2V157.3c0,0,0.4-6.2-9.3-6.2h-18.2h-18.1c-9.6,0-9.3,6.2-9.3,6.2v137v161.9
			l-19.2-2.1V157.3c0,0,0.4-6.2-9.3-6.2h-18.1h-18.2c-9.6,0-9.3,6.2-9.3,6.2v137v153.9l-266-28.8v-97.6c2.3,0.1,6.9,0.8,11.2,5.5
			c6.1,6.6,17.8,18.4,30.6,18.4c12.8,0,48.4-10,48.4-91.6c0-81.5-33.5-105.7-48.4-105.7c-8.2,0-17-0.4-26.7,8.2
			c-11,9.8-10.6,11-13.5,10.5c-0.6-0.1-1.7-0.6-1.7-1.8v-8c0,0,0.4-6.2-9.2-6.2h-18.2h-18.2c-9.6,0-9.2,6.2-9.2,6.2v137v119.2
			l-605.7-65.5V98.9H2508.5z M1434,289.9c0,0,0.2-4.8-3.5-4.8c-3.2,0-42.3,2.8-42.3-25.6V157.3c0,0,0.4-6.2-9.3-6.2h-18.1h-18.2
			c-9.6,0-9.3,6.2-9.3,6.2V289v5.3v41.8c0,5.4,7.1,4.8,7.1,4.8h20.3h20.3c0,0,7.1,0.6,7.1-4.8v-14.4c2.4,0.2,7.2,1.1,11.3,5.7
			c5.7,6.4,16,18.2,31,18.2c3.1,0,3.5-1.8,3.5-4.6L1434,289.9z M1586.9,231.7c-1.8-6-11-5.5-11-5.5h-74.8c0-15.1,0.8-32,18.3-32
			c12.5,0,14.9,8.4,15.9,12.3c1.3,5,8.3,4.3,8.3,4.3h32c6.9,0,6.6-5.3,6.6-5.3s3.6-59.1-65.1-59.1s-72.4,85.4-72.4,85.4
			S1431.2,345,1516.3,345C1602.1,345,1588.9,238.3,1586.9,231.7 M1904.6,231.7c-1.8-6-11-5.5-11-5.5h-74.8c0-15.1,0.8-32,18.3-32
			c12.5,0,14.9,8.4,16,12.3c1.3,5,8.3,4.3,8.3,4.3h32c6.9,0,6.6-5.3,6.6-5.3s3.6-59.1-65.1-59.1c-68.7,0-72.4,85.4-72.4,85.4
			S1748.9,345,1833.9,345C1919.7,345,1906.6,238.3,1904.6,231.7 M2078.6,336.1c0,5.4,7.1,4.8,7.1,4.8h20.3h20.3c0,0,7.1,0.6,7.1-4.8
			V157.3c0,0,0.4-6.2-9.3-6.2H2106h-18.2c-9.6,0-9.3,6.2-9.3,6.2v137L2078.6,336.1z M2138.9,393.4c0-17.8-14.7-32.2-32.9-32.2
			s-32.9,14.4-32.9,32.2c0,17.8,14.8,32.2,32.9,32.2S2138.9,411.2,2138.9,393.4 M2299.2,245.4L2299.2,245.4c0-94.9-58-97.4-68-97.4
			c-1.2,0-2.8-0.1-4.6-0.1c-1.9,0-3.9,0.1-5.1,0.1c-10,0-67.9,8.6-67.9,97.3v0v0c0,102.1,64.6,99.6,71.3,99.6c0.5,0,1,0,1.5-0.1
			c0.5,0,1.1,0.1,1.5,0.1C2234.6,345,2299.2,347.5,2299.2,245.4C2299.2,245.4,2299.2,245.4,2299.2,245.4 M2447.7,294.3v-137
			c0,0,0.4-6.2-9.3-6.2h-18.2h-15.2c-9.6,0-9.3,6.2-9.3,6.2v117.5c0,0,1,12.8-8.5,12.8c-11.7,0-15.8-8.8-15.8-12.7V157.3
			c0,0,0.4-6.2-9.3-6.2h-18.1h-18.2c-9.6,0-9.3,6.2-9.3,6.2v137v41.8c0,5.4,7.1,4.8,7.1,4.8h20.3h20.3c0,0,7.1,0.6,7.1-4.8v-14.3
			c4.2,0.2,7.6,2.1,8.7,2.9c3.4,2.6,16.4,20.9,33.7,20.9C2451.6,345.6,2447.7,294.3,2447.7,294.3 M2241.3,248c0,1,0.1,13.9-0.9,27.2
			c-1.1,13.8-13.7,13.1-13.7,13.1s-12.6,0.7-13.7-13.1c-1.1-13.3-0.9-26.2-0.9-27.2c0-1-0.1-15.2,0.9-28.5c0.6-8,5.1-11.1,8.8-12.3
			c2.5-1.1,4.7-1,4.7-1s1.6-0.1,3.6,0.6c3.8,0.8,9.6,3.6,10.3,12.7C2241.4,232.8,2241.3,247,2241.3,248 M1854.3,270.2
			c0,0,0.3,24.8-17.2,24.8c-17,0-18.4-20.5-18.4-24.7c0-4.2,8.2-3.9,8.2-3.9h19.2C1855.3,266.4,1854.3,270.2,1854.3,270.2
			 M1536.7,270.2c0,0,0.3,24.8-17.2,24.8c-17,0-18.4-20.5-18.4-24.7c0-4.2,8.2-3.9,8.2-3.9h19.2
			C1537.6,266.4,1536.7,270.2,1536.7,270.2 M1657.3,248c0-1-0.1-13.9,0.9-27.2c1.1-13.8,13.7-13.1,13.7-13.1s12.6-0.8,13.7,13.1
			c1.1,13.3,1,26.2,0.9,27.2c0,1,0.1,13.9-0.9,27.2c-1.1,13.8-13.7,13.1-13.7,13.1s-12.6,0.7-13.7-13.1
			C1657.2,261.9,1657.3,249,1657.3,248"/>
		<path id="path16" d="M2385.9,539.9V789H875V376.5l1059.7,114.6c-20.2,5.5-55.6,25.5-55.6,95.2v0v0c0,102.1,64.6,99.6,71.3,99.6
			c0.4,0,1,0,1.5-0.1c0.5,0,1.1,0.1,1.5,0.1c6.7,0,71.3,2.5,71.3-99.6v0v0c0-55.6-19.9-79.4-38.4-89.6l53.5,5.8v132.2v41.8
			c0,5.4,7.1,4.8,7.1,4.8h20.3h20.3c0,0,7.1,0.6,7.1-4.8v-14.3c4.2,0.2,7.6,2.1,8.7,2.9c3.4,2.6,16.4,20.9,33.7,20.9
			c37.7,0,33.8-51.3,33.8-51.3v-118L2385.9,539.9z M1808.1,676.4c0,5.4,7.1,4.8,7.1,4.8h20.3h20.3c0,0,7.1,0.6,7.1-4.8V497.6
			c0,0,0.4-6.2-9.3-6.2h-18.1h-18.2c-9.6,0-9.3,6.2-9.3,6.2v137.1V676.4z M1367.4,676.4c0,5.4,7.1,4.8,7.1,4.8h20.3h20.3
			c0,0,7.1,0.6,7.1-4.8V497.6c0,0,0.4-6.2-9.2-6.2h-18.2h-18.2c-9.6,0-9.2,6.2-9.2,6.2v137.1V676.4z M1089.1,572
			c-1.8-6-11-5.5-11-5.5h-74.8c0-15.1,0.8-32,18.3-32c12.4,0,14.9,8.4,15.9,12.3c1.3,5,8.3,4.3,8.3,4.3h32c6.9,0,6.6-5.3,6.6-5.3
			s3.6-59.1-65.1-59.1c-68.7,0-72.4,85.4-72.4,85.4s-13.5,113.4,71.6,113.4C1104.2,685.4,1091.1,578.7,1089.1,572 M1245.8,491.4
			h-49.3c0,0-5.3,0-8.3,5.5c-2.8,5-17.4,36.7-17.4,36.7s-1.4,2.8-4.3,2.8c-2.9,0-4.3-2.8-4.3-2.8s-14.6-31.7-17.4-36.7
			c-3.1-5.5-8.3-5.5-8.3-5.5h-49.3c-5.3,0,0,8.7,0,8.7s48.1,80.4,49.8,84.2c1.8,3.7,0,7.7,0,7.7s-43.2,77.2-47,83.8
			c-3.7,6.6,6.6,5.5,6.6,5.5h44.3c7.8,0,9.6-5,9.6-5s11-25.6,12.8-29.5c1.9-4.5,3.2-3.9,3.2-3.9s1.1-0.6,3.2,3.9
			c1.8,3.9,12.8,29.5,12.8,29.5s1.8,5,9.6,5h44.3c0,0,10.3,1.1,6.6-5.5c-3.7-6.6-47-83.8-47-83.8s-1.8-3.9,0-7.7
			c1.8-3.7,49.8-84.2,49.8-84.2S1251.2,491.4,1245.8,491.4 M1347,640.6c0,0,0.3-5.9-5.8-5.9h-12V497.6c0,0,0.4-6.2-9.2-6.2h-18.2
			h-18.2c-9.6,0-9.2,6.2-9.2,6.2v137.1h-12c-6.1,0-5.8,5.9-5.8,5.9v35.2c0,5.6,5.4,5.6,5.4,5.6h12.5v47.1c0,5.4,7.1,4.8,7.1,4.8
			h20.3h20.3c0,0,7.1,0.6,7.1-4.8v-47.1h12.5c0,0,5.4,0,5.4-5.6V640.6z M1427.7,733.8c0-17.8-14.8-32.2-32.9-32.2
			s-32.9,14.4-32.9,32.2c0,17.8,14.7,32.2,32.9,32.2S1427.7,751.6,1427.7,733.8 M1573,634.7V497.6c0,0,0.4-6.2-9.3-6.2h-18.1h-15.2
			c-9.6,0-9.2,6.2-9.2,6.2v117.5c0,0,1,12.8-8.6,12.8c-11.7,0-15.8-8.8-15.8-12.7V497.6c0,0,0.4-6.2-9.3-6.2h-18.1h-18.2
			c-9.6,0-9.3,6.2-9.3,6.2v137.1v41.8c0,5.4,7.1,4.8,7.1,4.8h20.3h20.3c0,0,7.1,0.6,7.1-4.8v-14.3c4.2,0.2,7.6,2.1,8.7,2.9
			c3.4,2.6,16.4,20.9,33.7,20.9C1576.9,685.9,1573,634.7,1573,634.7 M1688.3,509.2c0,0,0.1-4.1-1.7-8.4
			c-5.8-11.1-26.7-12.2-32.1-12.2c-10,0-67.9-4.4-68,97.7v0.1c0,102.1,64.6,99.6,71.3,99.6c5.4,0,16.7-2.3,22.1-6.5
			c1.7-1.4,5.1-3.9,6.7-7.6c1.8-4.3,1.7-8.4,1.7-8.4v-31.1c0-5.9-4.4-3.9-4.4-3.9s-7.5,3.7-12.5,3.7c-24.1,0-24.2-44.3-24.2-45.8v0
			v0c0-1.5,0-45.8,24.2-45.8c5,0,12.5,3.7,12.5,3.7s4.4,2,4.4-3.9V509.2z M1795.2,640.6c0,0,0.3-5.9-5.8-5.9h-12V497.6
			c0,0,0.3-6.2-9.2-6.2h-18.2h-18.2c-9.6,0-9.2,6.2-9.2,6.2v137.1h-12c-6.1,0-5.8,5.9-5.8,5.9v35.2c0,5.6,5.4,5.6,5.4,5.6h12.5v47.1
			c0,5.4,7.1,4.8,7.1,4.8h20.3h20.3c0,0,7.1,0.6,7.1-4.8v-47.1h12.5c0,0,5.4,0,5.4-5.6V640.6z M1868.4,733.8
			c0-17.8-14.7-32.2-32.9-32.2c-18.2,0-32.9,14.4-32.9,32.2c0,17.8,14.8,32.2,32.9,32.2C1853.7,766,1868.4,751.6,1868.4,733.8
			 M1038.8,610.6c0,0,0.3,24.8-17.2,24.8c-17,0-18.5-20.5-18.5-24.7c0-4.2,8.2-3.9,8.2-3.9h19.2
			C1039.8,606.7,1038.8,610.6,1038.8,610.6 M1937.5,588.9c0-1-0.1-15.2,0.9-28.5c0.7-8,5.2-11.1,8.8-12.3c2.5-1.1,4.7-1,4.7-1
			s1.6-0.1,3.6,0.6c3.8,0.8,9.6,3.6,10.3,12.7c1.1,13.3,0.9,27.5,0.9,28.5c0,1,0.1,13.9-0.9,27.2c-1.1,13.8-13.7,13.1-13.7,13.1
			s-12.6,0.7-13.7-13.1C1937.3,602.8,1937.5,589.9,1937.5,588.9 M2094.7,615.2V508.4l24.3,2.6v104.1c0,0,1,12.8-8.6,12.8
			C2098.7,627.9,2094.7,619.1,2094.7,615.2"/>
		<path id="path18" d="M835.3,417.7c0,230.7-187,417.7-417.7,417.7C187,835.3,0,648.3,0,417.7C0,187,187,0,417.6,0
			C648.3,0,835.3,187,835.3,417.7 M417.6,64.3c-88.5,0-169.3,32.6-231.3,86.4h4.7h20.1H617h27.3h4.7C587,96.9,506.1,64.3,417.6,64.3
			 M417.6,365.9l131-150.7h-262L417.6,365.9z M417.6,469.5L286.7,620.1h261.8L417.6,469.5z M161.3,660.7l211.3-243L161.3,174.6
			c-60.1,63.3-97,148.8-97,243S101.2,597.4,161.3,660.7 M417.6,771c88.5,0,169.3-32.6,231.3-86.4h-44.3v0H230.6v0h-44.3
			C248.3,738.4,329.1,771,417.6,771 M771,417.7c0-94.2-36.9-179.7-97-243L462.7,417.7l211.3,243C734.1,597.4,771,511.9,771,417.7"/>
	</g>
</g>
</svg>
