<?xml version="1.0" encoding="utf-8"?>
<!-- Generator: Adobe Illustrator 25.3.1, SVG Export Plug-In . SVG Version: 6.00 Build 0)  -->
<svg version="1.1" id="Layer_1" xmlns="http://www.w3.org/2000/svg" xmlns:xlink="http://www.w3.org/1999/xlink" x="0px" y="0px"
	 viewBox="0 0 970 970" style="enable-background:new 0 0 970 970;" xml:space="preserve">
<style type="text/css">
	.st0{fill-rule:evenodd;clip-rule:evenodd;fill:#FFFFFF;}
</style>
<desc>Created with Sketch.</desc>
<g id="Page-1">
	<g id="Artboard-5">
		<path id="Combined-Shape" class="st0" d="M213.2,794c72.6,64.1,167.9,103,272.3,103s199.8-38.9,272.3-103H213.2z M191.5,773.4
			L437,484L192.8,196.2C119.4,270.5,74,372.7,74,485.5C74,597.6,118.8,699.2,191.5,773.4z M216.6,174h537.8
			C682.3,111.7,588.3,74,485.5,74S288.7,111.7,216.6,174z M779.1,197.1L532,484l248.4,288.5c72.1-74.1,116.6-175.4,116.6-287
			C897,373.2,852,271.4,779.1,197.1z M485,970C217.1,970,0,752.9,0,485S217.1,0,485,0s485,217.1,485,485S752.9,970,485,970z
			 M484,538L322,724h324L484,538z M484,432l162-186H322L484,432z"/>
	</g>
</g>
</svg>
